<svg xmlns="http://www.w3.org/2000/svg" viewBox="0 0 64 64" width="18" height="18" fill="currentColor"><path d="M32.32,52.4l-.32.32-.35-.32C16.45,38.61,6.4,29.49,6.4,20.24A10.94,10.94,0,0,1,17.6,9,12.55,12.55,0,0,1,29,16.59h6A12.55,12.55,0,0,1,46.4,9a10.94,10.94,0,0,1,11.2,11.2C57.6,29.49,47.55,38.61,32.32,52.4ZM46.4,2.64A19.23,19.23,0,0,0,32,9.3,19.23,19.23,0,0,0,17.6,2.64,17.41,17.41,0,0,0,0,20.24c0,12.06,10.88,22,27.36,36.9L32,61.36l4.64-4.22C53.12,42.19,64,32.3,64,20.24A17.41,17.41,0,0,0,46.4,2.64Z"/></svg>