<svg xmlns="http://www.w3.org/2000/svg" width="51" height="51" viewBox="0 0 51 51" fill="none">
  <g clip-path="url(#clip0_8522_2)">
    <path d="M48.0287 20.3573L38.7284 13.3494C38.4375 13.1305 38.0841 13.0127 37.7203 13.0127H33.8327C33.1368 13.0127 32.5057 13.4496 32.2585 14.1146C31.2868 16.7251 28.7598 18.5349 25.8949 18.5349C23.0488 18.5349 20.5095 16.7428 19.5313 14.1146C19.284 13.4493 18.6527 13.0127 17.9571 13.0127H14.0695C13.7057 13.0127 13.3523 13.1305 13.0614 13.3494L3.76107 20.3573C3.06258 20.8838 2.88639 21.8585 3.35657 22.5956L6.26938 27.1712C6.7479 27.9229 7.72996 28.1679 8.50664 27.7311L13.6505 24.8297V48.0149C13.6505 48.9407 14.4011 49.6908 15.3268 49.6908H36.463C37.3887 49.6908 38.1394 48.9412 38.1394 48.0155V24.8297L43.2832 27.7311C44.0599 28.1679 45.0419 27.9229 45.5204 27.1712L48.4332 22.5956C48.9034 21.8585 48.7272 20.8838 48.0287 20.3573Z" fill="#CBE3FA"/>
    <path d="M32.7642 28.2889C33.2396 30.8702 32.0563 33.6704 29.7033 35.6783C29.0194 36.2621 27.9498 36.0547 27.5505 35.2488C26.3943 32.9167 22.095 31.6823 22.9676 27.1588C24.1284 21.1451 31.4787 21.313 32.7642 28.2889Z" fill="#BEFA91"/>
    <path d="M28.6262 22.9918C29.6748 23.275 29.6422 24.7838 28.5875 25.0436C26.6402 25.5231 25.4181 27.2534 25.0407 29.2988C24.8299 30.4414 23.2009 30.479 22.9567 29.343C22.5401 27.4057 23.3598 24.5454 25.4504 23.3744C26.4203 22.8309 27.5462 22.7001 28.6262 22.9918Z" fill="#DAFFBF"/>
    <path d="M19.5351 14.1251C19.7108 14.5956 19.3732 15.0978 18.871 15.0978H17.1971C16.8333 15.0978 16.4799 15.2157 16.189 15.4346L6.88864 22.4424C6.19015 22.9689 6.01396 23.9437 6.48414 24.6807L7.56962 26.3856C8.09244 27.2068 6.863 28.1034 6.26938 27.1712L3.35657 22.5956C2.88639 21.8585 3.06258 20.8838 3.76107 20.3573L13.0614 13.3494C13.3523 13.1305 13.7057 13.0127 14.0696 13.0127H17.9571C18.6362 13.0129 19.2756 13.43 19.5351 14.1251ZM16.778 29.5923V48.2398C16.778 49.0413 16.1283 49.691 15.3268 49.691C14.401 49.691 13.6505 48.941 13.6505 48.0151V29.5923C13.6504 29.3151 13.7241 29.0429 13.8639 28.8036C14.0037 28.5643 14.2046 28.3664 14.446 28.2302C15.4884 27.6422 16.778 28.3955 16.778 29.5923ZM38.7284 13.3496C39.4743 13.9112 39.0772 15.0988 38.1434 15.0985H36.9603C36.2644 15.0981 35.6332 15.5349 35.3861 16.2C34.0621 19.7568 30.2425 21.3354 26.972 20.3088C26.0113 20.0072 26.0962 18.6071 27.0871 18.4276C29.3692 18.0143 31.3929 16.4407 32.2585 14.1149C32.5058 13.4495 33.1371 13.0129 33.8327 13.0129H37.7203C38.0841 13.0129 38.4375 13.1306 38.7284 13.3496Z" fill="#EEF7FF"/>
    <path d="M48.5321 19.6911L39.2323 12.6837C38.7965 12.3567 38.2667 12.1794 37.722 12.1783H33.8348C32.7922 12.1783 31.8455 12.8393 31.4792 13.8233C30.689 15.9457 28.7428 17.4301 26.5208 17.6667C26.5418 17.2751 26.2835 16.911 25.8887 16.8132C25.674 16.7601 25.4469 16.7944 25.2575 16.9086C25.0681 17.0229 24.9319 17.2077 24.8787 17.4224C24.4121 19.3066 24.3214 21.1759 24.5466 22.9637C23.3274 23.8425 22.4828 25.2533 22.1453 27.0011C21.1751 32.0278 25.7817 33.5661 26.7994 35.6194C27.4391 36.9099 29.141 37.2514 30.2411 36.3129C32.8242 34.109 34.104 30.9767 33.581 28.1383C33.2119 26.1351 32.347 24.4952 31.0799 23.3956C30.9972 23.3238 30.9012 23.269 30.7973 23.2343C30.6934 23.1997 30.5837 23.1858 30.4744 23.1935C30.3652 23.2013 30.2585 23.2305 30.1606 23.2794C30.0626 23.3284 29.9752 23.3962 29.9035 23.4789C29.7585 23.646 29.6858 23.8638 29.7015 24.0844C29.7171 24.305 29.8197 24.5104 29.9868 24.6554C30.9653 25.5045 31.6408 26.8132 31.9407 28.4405C32.3559 30.6952 31.29 33.2255 29.1585 35.0441C28.8861 35.2764 28.4516 35.1969 28.294 34.8787C27.009 32.2861 23.0103 31.3215 23.7832 27.3174C23.9739 26.3293 24.3646 25.4944 24.9134 24.8723C25.4995 27.1323 26.5176 28.9407 27.4047 30.1972C27.4817 30.3064 27.5839 30.3956 27.7026 30.4571C27.8213 30.5185 27.9531 30.5505 28.0868 30.5504C28.7503 30.5504 29.1619 29.7941 28.7673 29.2353C26.7562 26.3861 25.7446 22.9563 26.2101 19.3622C29.2535 19.2356 31.9737 17.2761 33.0424 14.4054C33.1669 14.0711 33.4853 13.8465 33.8348 13.8465H37.722C37.9035 13.8465 38.0835 13.9068 38.2285 14.0161L47.5283 21.0236C47.8768 21.2862 47.9661 21.7801 47.7318 22.1481L44.8189 26.7234C44.7031 26.9052 44.522 27.0357 44.313 27.0879C44.1039 27.1402 43.8827 27.1103 43.695 27.0044L38.5504 24.1032C37.9939 23.7896 37.3066 24.1933 37.3066 24.8297V48.0156C37.3066 48.4798 36.9289 48.8575 36.4647 48.8575H15.3286C14.8644 48.8575 14.4867 48.4798 14.4867 48.0156V24.8295C14.4867 24.1919 13.7982 23.79 13.243 24.103L8.09832 27.0043C7.91059 27.1101 7.68944 27.14 7.48038 27.0877C7.27132 27.0354 7.09026 26.9049 6.97448 26.7232L4.06156 22.1478C3.8272 21.7799 3.91655 21.2859 4.26507 21.0234L13.5647 14.0159C13.7109 13.9062 13.8886 13.8467 14.0714 13.8463H17.9585C18.3081 13.8463 18.6264 14.0709 18.7509 14.4053C19.1001 15.3427 19.6247 16.1916 20.3101 16.9281C20.4616 17.0869 20.6696 17.1797 20.8889 17.1862C21.1083 17.1928 21.3214 17.1126 21.4821 16.9631C21.6427 16.8135 21.738 16.6067 21.7472 16.3875C21.7564 16.1682 21.6788 15.9541 21.5313 15.7917C20.6568 14.8522 20.4049 14.0079 20.2449 13.6571L23.1458 12.2201C24.8684 11.3667 26.925 11.3667 28.6475 12.2201L29.1079 12.4482C29.3057 12.5428 29.5328 12.5558 29.74 12.4843C29.9473 12.4127 30.1181 12.2625 30.2154 12.066C30.3127 11.8695 30.3288 11.6426 30.2601 11.4344C30.1914 11.2262 30.0434 11.0534 29.8483 10.9534C28.9469 10.5068 28.112 10.1032 26.7307 9.95769V9.2935C26.7307 8.77954 27.0389 8.3202 27.535 8.0947C29.0445 7.40841 29.9534 5.89362 29.8505 4.23559C29.7271 2.24833 28.1353 0.656497 26.1479 0.533062C23.8076 0.388047 21.9351 2.25563 21.9351 4.48684C21.9351 4.70803 22.023 4.92017 22.1794 5.07658C22.3358 5.23299 22.5479 5.32086 22.7691 5.32086C22.9903 5.32086 23.2025 5.23299 23.3589 5.07658C23.5153 4.92017 23.6032 4.70803 23.6032 4.48684C23.6032 3.18483 24.6927 2.11614 26.0445 2.19787C27.1751 2.26814 28.1154 3.20849 28.1857 4.3389C28.2453 5.30053 27.7188 6.17865 26.8447 6.57616C25.7621 7.06823 25.0627 8.13484 25.0627 9.2934V9.95759C24.1464 10.0541 23.2446 10.3095 22.4055 10.7253L19.0028 12.4109C18.6758 12.2583 18.3195 12.1789 17.9586 12.1782H14.0715C13.5267 12.1793 12.9968 12.3566 12.5611 12.6836L3.26132 19.6911C2.22234 20.4741 1.95598 21.9467 2.65468 23.0439L5.5676 27.6191C6.28423 28.7445 7.75585 29.1123 8.91785 28.4573L12.8188 26.2574V48.0154C12.8188 49.3993 13.9448 50.5253 15.3288 50.5253H36.4647C37.8486 50.5253 38.9747 49.3993 38.9747 48.0154V26.2574L42.8756 28.4572C44.0376 29.1124 45.509 28.7444 46.2258 27.6191L49.1388 23.044C49.8375 21.9466 49.5711 20.4739 48.5321 19.6911Z" fill="black"/>
  </g>
  <defs>
    <clipPath id="clip0_8522_2">
      <rect width="50" height="50" fill="white" transform="translate(0.898438 0.525391)"/>
    </clipPath>
  </defs>
</svg>