<svg xmlns="http://www.w3.org/2000/svg" width="20" height="18" viewBox="0 0 20 18" fill="currentColor">
						  <path d="M9.90736 15.2534L9.80926 15.3515L9.70136 15.2534C5.04196 11.0256 1.96185 8.22997 1.96185 5.3951C1.96185 3.43324 3.43324 1.96185 5.3951 1.96185C6.90572 1.96185 8.37711 2.94278 8.897 4.27684H10.7215C11.2414 2.94278 12.7128 1.96185 14.2234 1.96185C16.1853 1.96185 17.6567 3.43324 17.6567 5.3951C17.6567 8.22997 14.5766 11.0256 9.90736 15.2534ZM14.2234 0C12.5166 0 10.8785 0.79455 9.80926 2.04033C8.74005 0.79455 7.10191 0 5.3951 0C2.37384 0 0 2.36403 0 5.3951C0 9.09319 3.33515 12.1243 8.38692 16.7052L9.80926 18L11.2316 16.7052C16.2834 12.1243 19.6185 9.09319 19.6185 5.3951C19.6185 2.36403 17.2447 0 14.2234 0Z"/>
						</svg>