<svg xmlns="http://www.w3.org/2000/svg" width="16" height="18" viewBox="0 0 16 18" fill="currentColor"><path d="M11.3634 7.67118C11.3634 7.28602 11.0512 6.9738 10.666 6.9738H3.48303C3.09787 6.9738 2.78565 7.28602 2.78565 7.67118C2.78565 8.05634 3.09787 8.36856 3.48303 8.36856H10.666C11.0512 8.36856 11.3634 8.05634 11.3634 7.67118ZM3.48303 9.76332C3.09787 9.76332 2.78565 10.0755 2.78565 10.4607C2.78565 10.8459 3.09787 11.1581 3.48303 11.1581H7.84552C8.23069 11.1581 8.5429 10.8459 8.5429 10.4607C8.5429 10.0755 8.23069 9.76332 7.84552 9.76332H3.48303Z"/><path d="M5.12187 16.4582H2.78952C2.02045 16.4582 1.39476 15.8325 1.39476 15.0634V2.78952C1.39476 2.02045 2.02045 1.39476 2.78952 1.39476H11.3634C12.1325 1.39476 12.7582 2.02045 12.7582 2.78952V7.07841C12.7582 7.46357 13.0704 7.77579 13.4556 7.77579C13.8407 7.77579 14.1529 7.46357 14.1529 7.07841V2.78952C14.1529 1.25138 12.9016 0 11.3634 0H2.78952C1.25138 0 0 1.25138 0 2.78952V15.0634C0 16.6015 1.25138 17.8529 2.78952 17.8529H5.12187C5.50703 17.8529 5.81925 17.5407 5.81925 17.1555C5.81925 16.7704 5.50703 16.4582 5.12187 16.4582Z"/><path d="M15.3882 10.0971C14.5724 9.28136 13.2452 9.28132 12.43 10.0965L8.60127 13.9168C8.51997 13.9979 8.45997 14.0979 8.42658 14.2078L7.59276 16.9528C7.55646 17.0723 7.55292 17.1993 7.58249 17.3207C7.61206 17.442 7.67367 17.5531 7.76087 17.6425C7.84807 17.7319 7.95768 17.7962 8.07823 17.8288C8.19879 17.8613 8.32587 17.8609 8.44621 17.8276L11.261 17.0479C11.3769 17.0158 11.4824 16.9543 11.5675 16.8694L15.3882 13.0559C16.2039 12.2401 16.2039 10.9129 15.3882 10.0971ZM10.712 15.7527L9.29586 16.145L9.71028 14.7806L12.2937 12.2029L13.2801 13.1893L10.712 15.7527ZM14.4025 12.0692L14.2673 12.204L13.2811 11.2178L13.4157 11.0834C13.6876 10.8115 14.1301 10.8115 14.402 11.0834C14.6739 11.3553 14.6739 11.7977 14.4025 12.0692ZM10.666 4.18428H3.48303C3.09787 4.18428 2.78565 4.4965 2.78565 4.88166C2.78565 5.26682 3.09787 5.57904 3.48303 5.57904H10.666C11.0512 5.57904 11.3634 5.26682 11.3634 4.88166C11.3634 4.4965 11.0512 4.18428 10.666 4.18428Z"/></svg>