<svg xmlns="http://www.w3.org/2000/svg" width="50" height="51" viewBox="0 0 50 51" fill="none">
  <path d="M43.3405 32.3108L48.0512 27.6001C48.2904 27.3611 48.4802 27.0772 48.6097 26.7648C48.7392 26.4524 48.8058 26.1175 48.8058 25.7793C48.8058 25.4411 48.7392 25.1062 48.6097 24.7938C48.4802 24.4813 48.2904 24.1975 48.0512 23.9585L43.3405 19.2478C42.8577 18.7648 42.5862 18.1099 42.5858 17.427V10.7698C42.5858 10.0867 42.3145 9.43164 41.8315 8.94865C41.3485 8.46565 40.6934 8.19431 40.0103 8.19431H33.3501C32.6672 8.19392 32.0123 7.9225 31.5293 7.43966L26.8186 2.72887C26.5795 2.48964 26.2957 2.29986 25.9833 2.17037C25.6708 2.04089 25.336 1.97424 24.9978 1.97424C24.6596 1.97424 24.3247 2.04089 24.0123 2.17037C23.6999 2.29986 23.416 2.48964 23.177 2.72887L18.4723 7.44259C17.9893 7.92542 17.3344 8.19684 16.6515 8.19723H9.99122C9.30817 8.19723 8.65309 8.46858 8.17009 8.95157C7.6871 9.43456 7.41576 10.0896 7.41576 10.7727V17.433C7.41535 18.1159 7.14391 18.7708 6.66105 19.2538L1.95336 23.9615C1.71412 24.2005 1.52433 24.4844 1.39484 24.7968C1.26535 25.1092 1.1987 25.4441 1.1987 25.7823C1.1987 26.1205 1.26535 26.4554 1.39484 26.7678C1.52433 27.0802 1.71412 27.3641 1.95336 27.6031L6.66403 32.3138C7.14689 32.7968 7.41833 33.4517 7.41874 34.1346V40.7949C7.41874 41.4779 7.69008 42.133 8.17308 42.616C8.65607 43.099 9.31115 43.3703 9.99421 43.3703H16.6545C17.3375 43.3707 17.9923 43.6422 18.4753 44.125L23.186 48.8357C23.425 49.0749 23.7089 49.2647 24.0213 49.3942C24.3337 49.5237 24.6686 49.5903 25.0068 49.5903C25.345 49.5903 25.6798 49.5237 25.9923 49.3942C26.3047 49.2647 26.5885 49.0749 26.8276 48.8357L31.5383 44.125C32.0213 43.6422 32.6762 43.3707 33.3591 43.3703H40.0193C40.7024 43.3703 41.3575 43.099 41.8405 42.616C42.3235 42.133 42.5948 41.4779 42.5948 40.7949V34.1346C42.591 33.7962 42.655 33.4605 42.7831 33.1472C42.9112 32.834 43.1007 32.5496 43.3405 32.3108Z" fill="#7F9AFF"/>
  <path d="M43.4274 41.1153V34.3891C43.4274 33.7003 43.7058 33.0386 44.2 32.5504L49.0245 27.7947C49.2691 27.5551 49.4634 27.269 49.5961 26.9532C49.7288 26.6375 49.7971 26.2985 49.7971 25.956C49.7971 25.6135 49.7288 25.2745 49.5961 24.9587C49.4634 24.643 49.2691 24.3569 49.0245 24.1172L44.2 19.3616C43.9559 19.1215 43.7619 18.8353 43.6293 18.5197C43.4966 18.204 43.428 17.8652 43.4273 17.5228V10.7967C43.4273 9.3622 42.2474 8.19723 40.792 8.19723H38.7885L38.6747 8.55958V17.3461C38.6747 19.3287 39.4982 21.2273 40.9567 22.5959L44.4695 25.8931L40.5704 30.1576C39.3515 31.4932 38.6747 33.2272 38.6747 35.024V40.3007H32.3499C30.8435 40.3007 29.412 40.9356 28.4118 42.0437L25.3901 45.3978L21.1675 41.1962C20.0865 40.1247 18.6257 39.524 17.1037 39.5251H7.97867L7.70616 42.3072C7.93056 42.7337 8.26743 43.0906 8.68026 43.3392C9.09308 43.5879 9.5661 43.7188 10.048 43.7177H16.87C17.5678 43.7177 18.2386 43.9903 18.7327 44.4784L23.5573 49.234C24.5874 50.2492 26.2555 50.2492 27.2857 49.234L32.1102 44.4784C32.6067 43.9894 33.2761 43.716 33.9729 43.7177H40.7979C42.2504 43.7177 43.4274 42.5528 43.4274 41.1153Z" fill="#5078FF"/>
  <path d="M25.0008 50.7793C24.0335 50.7793 23.0692 50.4109 22.3324 49.6772L17.6218 44.9665C17.4944 44.838 17.3428 44.7361 17.1757 44.6667C17.0086 44.5973 16.8294 44.5618 16.6485 44.5622H9.99122C7.90989 44.5622 6.21786 42.8702 6.21786 40.7889V34.1286C6.21786 33.7663 6.07105 33.4128 5.81358 33.1553L1.10284 28.4446C-0.367615 26.9742 -0.367615 24.5814 1.10284 23.111L5.81358 18.4003C6.06813 18.1427 6.21786 17.7894 6.21786 17.427V10.7697C6.21786 8.68838 7.90989 6.99636 9.99122 6.99636H16.6515C17.0139 6.99636 17.3672 6.84961 17.6247 6.59207L22.3355 1.88438C22.685 1.53279 23.1008 1.25407 23.5589 1.06438C24.0169 0.87469 24.5081 0.777795 25.0038 0.779314C26.01 0.779314 26.9593 1.17161 27.6721 1.88438L32.3828 6.59505C32.6403 6.84961 32.9937 6.99934 33.3561 6.99934H40.0164C42.0977 6.99934 43.7897 8.69136 43.7897 10.7727V17.433C43.7897 17.7953 43.9365 18.1487 44.194 18.4063L48.9047 23.114C50.3751 24.5844 50.3751 26.9772 48.9047 28.4476L44.194 33.1583C43.9361 33.4167 43.7908 33.7665 43.7897 34.1316V40.7919C43.7897 42.8732 42.0977 44.5652 40.0164 44.5652H33.3561C32.9877 44.5652 32.6433 44.709 32.3828 44.9695L27.6721 49.6803C26.9619 50.3853 26.0015 50.7805 25.0008 50.7793ZM9.99122 9.39513C9.23353 9.39513 8.61365 10.012 8.61365 10.7727V17.433C8.61365 18.4392 8.22129 19.3886 7.50858 20.1013L2.80083 24.806C2.54335 25.0645 2.39878 25.4144 2.39878 25.7793C2.39878 26.1441 2.54335 26.4941 2.80083 26.7526L7.51156 31.4633C7.86315 31.8128 8.14187 32.2287 8.33156 32.6867C8.52125 33.1447 8.61815 33.6359 8.61663 34.1316V40.7919C8.61663 41.5496 9.23353 42.1694 9.9942 42.1694H16.6545C17.6607 42.1694 18.61 42.5617 19.3228 43.2745L24.0335 47.9852C24.2919 48.2427 24.6419 48.3872 25.0067 48.3872C25.3716 48.3872 25.7216 48.2427 25.98 47.9852L30.6908 43.2745C31.0403 42.9229 31.4561 42.6442 31.9142 42.4545C32.3722 42.2648 32.8633 42.1679 33.3591 42.1694H40.0193C40.777 42.1694 41.3969 41.5525 41.3969 40.7919V34.1316C41.3969 33.1254 41.7892 32.1761 42.502 31.4633L47.2127 26.7526C47.4701 26.4941 47.6147 26.1441 47.6147 25.7793C47.6147 25.4144 47.4701 25.0645 47.2127 24.806L42.502 20.0953C42.1504 19.7458 41.8717 19.3299 41.682 18.8719C41.4923 18.4139 41.3954 17.9227 41.3969 17.427V10.7698C41.3969 10.0121 40.78 9.3922 40.0193 9.3922H33.3591C32.3528 9.3922 31.4035 8.9999 30.6908 8.28713L25.98 3.57646C25.7195 3.31589 25.3751 3.17217 25.0067 3.17217C24.6384 3.17217 24.294 3.31589 24.0335 3.57646L19.3198 8.29012C18.9703 8.64171 18.5544 8.92042 18.0964 9.11012C17.6384 9.29981 17.1472 9.3967 16.6515 9.39518L9.99122 9.39513Z" fill="#211D38"/>
  <path d="M9.20054 32.7331C9.00893 32.7331 8.81725 32.6612 8.6705 32.5144L3.04643 26.8904C2.89999 26.7448 2.78383 26.5717 2.70467 26.381C2.62551 26.1903 2.58492 25.9858 2.58523 25.7793C2.58523 25.36 2.74994 24.9647 3.04643 24.6682L7.79606 19.9186C8.37407 19.3406 8.6915 18.571 8.6915 17.7534V16.849C8.6915 16.6505 8.77038 16.46 8.91078 16.3196C9.05119 16.1792 9.24162 16.1003 9.44018 16.1003C9.63874 16.1003 9.82917 16.1792 9.96958 16.3196C10.11 16.46 10.1889 16.6505 10.1889 16.849V17.7564C10.1889 18.9723 9.71567 20.1192 8.85323 20.9787L4.10354 25.7284C4.08856 25.7434 4.0826 25.7613 4.0826 25.7793C4.0826 25.7972 4.08856 25.8182 4.10354 25.8302L9.72766 31.4543C9.83261 31.5588 9.90421 31.692 9.93339 31.8372C9.96257 31.9824 9.94803 32.1329 9.8916 32.2699C9.83517 32.4068 9.73939 32.5239 9.61639 32.6063C9.49339 32.6888 9.34863 32.7329 9.20054 32.7331ZM9.44018 14.2107C9.34186 14.2107 9.24451 14.1913 9.15367 14.1537C9.06284 14.1161 8.9803 14.0609 8.91078 13.9914C8.84126 13.9219 8.78611 13.8393 8.74849 13.7485C8.71086 13.6577 8.6915 13.5603 8.6915 13.462V11.0392C8.6915 10.1738 9.39526 9.46701 10.2637 9.46701H16.9779C17.7955 9.46701 18.5651 9.14958 19.1431 8.57157L20.0505 7.66421C20.344 7.3707 20.8172 7.3707 21.1106 7.66421C21.4041 7.95771 21.4041 8.43085 21.1106 8.72429L20.2032 9.63172C19.3437 10.4942 18.1968 10.9674 16.9809 10.9674H10.2637C10.2218 10.9674 10.1889 11.0003 10.1889 11.0422V13.465C10.1889 13.8752 9.85342 14.2107 9.44018 14.2107ZM22.7847 6.73882C22.6363 6.73923 22.4912 6.69555 22.3678 6.61332C22.2443 6.53109 22.1481 6.41403 22.0913 6.277C22.0345 6.13996 22.0197 5.98914 22.0488 5.84368C22.0778 5.69822 22.1495 5.56469 22.2546 5.46004L23.8897 3.82493C24.1832 3.53148 24.6564 3.53148 24.9499 3.82493C25.2434 4.11838 25.2433 4.59157 24.9499 4.88508L23.3147 6.52018C23.168 6.66694 22.9764 6.73882 22.7847 6.73882Z" fill="white"/>
  <path d="M23.3596 32.8858H23.3537C22.6409 32.8828 21.9552 32.5863 21.464 32.0712L16.2022 26.537C15.9834 26.3064 15.865 25.9985 15.8728 25.6808C15.8807 25.363 16.0142 25.0613 16.2442 24.8419C16.4747 24.6231 16.7826 24.5046 17.1004 24.5125C17.4181 24.5204 17.7198 24.6539 17.9392 24.8839L23.201 30.4181C23.2212 30.44 23.2458 30.4574 23.2731 30.4692C23.3004 30.4811 23.3299 30.4871 23.3596 30.487C23.3926 30.481 23.4645 30.475 23.5214 30.4181L33.3231 20.2241C33.5438 19.9953 33.8461 19.8633 34.1638 19.8572C34.4816 19.851 34.7888 19.9711 35.0181 20.1911C35.2469 20.4117 35.3789 20.7141 35.3851 21.0318C35.3912 21.3496 35.2711 21.6569 35.0511 21.8862L25.2494 32.0801C25.0048 32.3346 24.7113 32.5371 24.3866 32.6756C24.0619 32.814 23.7126 32.8855 23.3596 32.8858Z" fill="#211D38"/>
</svg>