<svg xmlns="http://www.w3.org/2000/svg" width="16" height="14" viewBox="0 0 16 14" fill="none"><path d="M7.70572 11.8638L7.62943 11.9401L7.5455 11.8638C3.92153 8.57548 1.52589 6.40109 1.52589 4.19619C1.52589 2.6703 2.6703 1.52589 4.19619 1.52589C5.37112 1.52589 6.51553 2.28883 6.91989 3.32643H8.33896C8.74332 2.28883 9.88774 1.52589 11.0627 1.52589C12.5886 1.52589 13.733 2.6703 13.733 4.19619C13.733 6.40109 11.3373 8.57548 7.70572 11.8638ZM11.0627 0C9.73515 0 8.46104 0.617984 7.62943 1.58692C6.79782 0.617984 5.52371 0 4.19619 0C1.84632 0 0 1.83869 0 4.19619C0 7.07248 2.59401 9.42997 6.52316 12.9929L7.62943 14L8.73569 12.9929C12.6649 9.42997 15.2589 7.07248 15.2589 4.19619C15.2589 1.83869 13.4125 0 11.0627 0Z" fill="currentColor"/></svg>