<svg xmlns="http://www.w3.org/2000/svg" width="18" height="20" viewBox="0 0 18 20" fill="currentColor"><path d="M10.7489 19C10.5867 19 10.4288 18.9474 10.2989 18.85L7.29893 16.6C7.20579 16.5301 7.13018 16.4395 7.07811 16.3354C7.02604 16.2313 6.99893 16.1164 6.99893 16V11.785L1.73693 5.86524C1.36322 5.44365 1.11922 4.9231 1.03424 4.36616C0.949268 3.80923 1.02694 3.2396 1.25793 2.72575C1.48891 2.21189 1.86338 1.77568 2.33632 1.46954C2.80926 1.16339 3.36055 1.00034 3.92393 0.999988H14.5739C15.1373 1.00065 15.6884 1.16397 16.1612 1.47032C16.6339 1.77667 17.0082 2.21302 17.2389 2.72693C17.4696 3.24084 17.5471 3.81044 17.4619 4.3673C17.3767 4.92415 17.1325 5.44456 16.7587 5.86599L11.4989 11.785V18.25C11.4989 18.4489 11.4199 18.6397 11.2793 18.7803C11.1386 18.921 10.9478 19 10.7489 19ZM8.49893 15.625L9.99893 16.75V11.5C9.99909 11.3164 10.0666 11.1392 10.1887 11.002L15.6397 4.86924C15.8214 4.6638 15.9401 4.41027 15.9813 4.13908C16.0225 3.86789 15.9845 3.59057 15.872 3.34041C15.7595 3.09025 15.5771 2.87788 15.3469 2.7288C15.1166 2.57973 14.8482 2.50028 14.5739 2.49999H3.92393C3.64977 2.5004 3.38155 2.5799 3.15144 2.72894C2.92132 2.87798 2.73909 3.09023 2.62659 3.34025C2.51409 3.59027 2.4761 3.86743 2.51718 4.1385C2.55826 4.40957 2.67666 4.66303 2.85818 4.86849L8.30993 11.002C8.43174 11.1393 8.49899 11.3165 8.49893 11.5V15.625Z"/><path fill-rule="evenodd" clip-rule="evenodd" d="M16.7587 5.86599L11.4989 11.785V18.25C11.4989 18.4489 11.4199 18.6397 11.2793 18.7803C11.1386 18.921 10.9478 19 10.7489 19C10.5867 19 10.4288 18.9474 10.2989 18.85L7.29893 16.6C7.20579 16.5301 7.13018 16.4395 7.07811 16.3354C7.02604 16.2313 6.99893 16.1164 6.99893 16V11.785L1.73693 5.86524C1.36322 5.44365 1.11922 4.9231 1.03424 4.36616C0.949268 3.80923 1.02694 3.2396 1.25793 2.72575C1.48891 2.21189 1.86338 1.77568 2.33632 1.46954C2.80926 1.16339 3.36055 1.00034 3.92393 0.999988H14.5739C15.1373 1.00065 15.6884 1.16397 16.1612 1.47032C16.6339 1.77667 17.0082 2.21302 17.2389 2.72693C17.4696 3.24084 17.5471 3.81044 17.4619 4.3673C17.3767 4.92415 17.1325 5.44456 16.7587 5.86599ZM6.79894 11.861L1.58745 5.99811C1.18819 5.54769 0.927318 4.99135 0.836534 4.39633C0.745749 3.80131 0.828733 3.19274 1.07551 2.64375C1.32229 2.09476 1.72236 1.62872 2.22764 1.30164C2.73292 0.974565 3.32191 0.800368 3.92381 0.799988L14.5739 0.799988C15.1758 0.800694 15.7649 0.97518 16.2699 1.30248C16.775 1.62977 17.1748 2.09596 17.4213 2.64501C17.6679 3.19406 17.7506 3.80261 17.6596 4.39754C17.5686 4.99247 17.3077 5.54846 16.9083 5.99871L11.6989 11.861V18.25C11.6989 18.5019 11.5988 18.7436 11.4207 18.9217C11.2425 19.0999 11.0009 19.2 10.7489 19.2C10.5434 19.2 10.3434 19.1333 10.1789 19.01L7.17894 16.76C7.06095 16.6715 6.96519 16.5568 6.89923 16.4248C6.83327 16.2929 6.79894 16.1475 6.79894 16V11.861ZM8.30993 11.002C8.43174 11.1393 8.49899 11.3165 8.49893 11.5V15.625L9.99893 16.75V11.5C9.99909 11.3164 10.0666 11.1392 10.1887 11.002L15.6397 4.86924C15.8214 4.6638 15.9401 4.41027 15.9813 4.13908C16.0225 3.86789 15.9845 3.59057 15.872 3.34041C15.7595 3.09025 15.5771 2.87788 15.3469 2.7288C15.1166 2.57973 14.8482 2.50028 14.5739 2.49999H3.92393C3.64977 2.5004 3.38155 2.5799 3.15144 2.72894C2.92132 2.87798 2.73909 3.09023 2.62659 3.34025C2.51409 3.59027 2.4761 3.86743 2.51718 4.1385C2.55826 4.40957 2.67666 4.66303 2.85818 4.86849L8.30993 11.002ZM3.00807 4.73607L8.45942 10.8691C8.6137 11.043 8.69899 11.2675 8.69894 11.5V15.525L9.79894 16.35V11.5C9.79913 11.2674 9.88462 11.0429 10.0392 10.8691L15.4899 4.73671C15.6461 4.56012 15.7481 4.34211 15.7835 4.10903C15.819 3.8759 15.7864 3.6375 15.6896 3.42245C15.5929 3.2074 15.4361 3.02484 15.2382 2.89669C15.0403 2.76856 14.8096 2.70026 14.5738 2.69999H3.92409M3.00807 4.73607C2.85213 4.55948 2.75022 4.34146 2.71492 4.10853C2.67961 3.87551 2.71227 3.63725 2.80898 3.42232C2.90569 3.20739 3.06235 3.02493 3.26016 2.8968C3.45794 2.76871 3.92409 2.69999 3.92409 2.69999"/></svg>