<svg xmlns="http://www.w3.org/2000/svg" class="" width="29" height="30" viewBox="0 0 29 30"><path d="M14.2504 30L0 22.8814V7.01669L14.2504 0L28.5009 7.01273V22.8814L14.2504 30ZM2.64633 21.246L14.2504 27.0388L25.8546 21.242V8.66276L14.2504 2.95069L2.64633 8.66276V21.246ZM15.5736 28.5207H12.9273V15.0152L0.739716 9.02798L1.90671 6.64627L15.5736 13.3666V28.5207ZM15.5736 28.5207H12.9273V13.3665L26.5942 6.6515L27.7612 9.03321L15.5736 15.0152V28.5207ZM14.2504 15.6596L0.739716 9.02798L1.90671 6.64627L14.2504 12.717L26.5942 6.65292L27.7612 9.03457L14.2504 15.6596Z"/></svg>