<svg xmlns="http://www.w3.org/2000/svg" width="51" height="51" viewBox="0 0 51 51" fill="none">
  <g clip-path="url(#clip0_8522_10)">
    <path d="M25.5035 7.58789C32.2077 10.0444 37.0184 16.4927 37.0184 24.0669C37.0184 31.6411 32.1565 38.0382 25.4523 40.4436C18.697 37.9871 13.9375 31.5899 13.9375 24.0157C13.9375 16.4415 18.7993 10.0444 25.5035 7.58789Z" fill="white"/>
    <path d="M25.4524 41.5694L25.0942 41.4671C17.7759 38.8059 12.9141 31.7946 12.9141 24.0669C12.9141 16.2879 17.8782 9.32786 25.1966 6.71783L25.5548 6.61548L25.8619 6.66666C33.1802 9.32786 38.042 16.3391 38.042 24.0669C38.042 31.8458 33.0778 38.8059 25.8107 41.4159L25.4524 41.5694ZM25.5036 8.71374C19.2088 11.1191 14.9611 17.2603 14.9611 24.0157C14.9611 30.7711 19.1577 36.9123 25.4524 39.3688C31.7472 36.9123 35.9437 30.8222 35.9949 24.0669C35.9949 17.3115 31.7984 11.1702 25.5036 8.71374Z" fill="#282D33"/>
    <path d="M31.8005 31.1292C30.3164 33.6881 28.0646 35.684 25.4545 36.9122C20.4904 34.6093 17.215 29.5427 17.2662 24.0156C17.2662 21.5079 17.9315 19.1026 19.1598 16.9532C20.6439 14.3943 22.8957 12.3984 25.5569 11.1702C30.5211 13.4731 33.7964 18.5397 33.7452 24.0668C33.6941 26.5233 33.0288 28.9798 31.8005 31.1292Z" fill="#5EB4E7"/>
    <path d="M24.4219 39.4629L24.4858 7.57959L26.5329 7.58368L26.469 39.467L24.4219 39.4629Z" fill="#282D33"/>
    <path d="M25.4064 45.4589C24.8434 45.4589 24.3828 44.9983 24.3828 44.4354V40.4947C24.3828 39.9318 24.8434 39.4712 25.4064 39.4712C25.9693 39.4712 26.4299 39.9318 26.4299 40.4947V44.4354C26.4299 44.9983 25.9693 45.4589 25.4064 45.4589Z" fill="#282D33"/>
    <path d="M16.3984 16.1825L17.7823 14.6738L25.7403 21.9737L24.3565 23.4824L16.3984 16.1825Z" fill="#282D33"/>
    <path d="M13.6016 24.2189L14.9854 22.7102L25.7346 32.57L24.3508 34.0787L13.6016 24.2189Z" fill="#282D33"/>
    <path d="M25.2266 21.9822L33.2174 14.7151L34.595 16.2299L26.6042 23.4971L25.2266 21.9822Z" fill="#282D33"/>
    <path d="M25.1058 32.5888L35.8991 22.7874L37.2747 24.3022L26.4815 34.1036L25.1058 32.5888ZM4.06337 38.857C-2.12906 28.9286 -0.644925 16.1855 7.64576 7.89484C17.4206 -1.87998 33.3366 -1.87998 43.1115 7.89484L41.6785 9.3278C32.6713 0.32063 18.0859 0.32063 9.07872 9.3278C1.50451 16.902 0.122731 28.6216 5.80339 37.7311L4.06337 38.857Z" fill="#282D33"/>
    <path d="M43.3649 9.99304H36.4049V7.94596H41.3179V3.03296H43.3649V9.99304ZM25.5553 50.5253C19.107 50.5253 12.7099 48.0688 7.79688 43.207L9.22983 41.774C18.237 50.7812 32.8225 50.7812 41.8296 41.774C49.4038 34.1998 50.7344 22.1732 45.0026 13.166L46.7426 12.0913C52.9862 21.9173 51.5021 35.0186 43.2626 43.2581C38.4008 48.12 31.9525 50.5253 25.5553 50.5253Z" fill="#282D33"/>
    <path d="M9.64083 48.0177H7.59375V41.0576H14.5538V43.1047H9.64083V48.0177Z" fill="#282D33"/>
  </g>
  <defs>
    <clipPath id="clip0_8522_10">
      <rect width="50.3071" height="50" fill="white" transform="translate(0.273438 0.525391)"/>
    </clipPath>
  </defs>
</svg>