<svg xmlns="http://www.w3.org/2000/svg" viewBox="0 0 64.39 64.26" width="18" height="18" fill="currentColor"><path d="M45.47,64.26a11.21,11.21,0,0,1-11.2-11.2V45.34a11.21,11.21,0,0,1,11.2-11.2h7.72a11.21,11.21,0,0,1,11.2,11.2v7.72a11.22,11.22,0,0,1-11.2,11.2Zm0-22.53a3.61,3.61,0,0,0-3.61,3.61v7.72a3.61,3.61,0,0,0,3.61,3.6h7.72a3.6,3.6,0,0,0,3.6-3.6V45.34a3.61,3.61,0,0,0-3.6-3.61ZM11.2,64.26A11.22,11.22,0,0,1,0,53.06V45.34a11.21,11.21,0,0,1,11.2-11.2h7.72a11.21,11.21,0,0,1,11.2,11.2v7.72a11.21,11.21,0,0,1-11.2,11.2Zm0-22.53a3.61,3.61,0,0,0-3.61,3.61v7.72a3.61,3.61,0,0,0,3.61,3.6h7.72a3.61,3.61,0,0,0,3.61-3.6V45.34a3.61,3.61,0,0,0-3.61-3.61ZM45.47,30.12a11.21,11.21,0,0,1-11.2-11.2V11.2A11.21,11.21,0,0,1,45.47,0h7.72a11.21,11.21,0,0,1,11.2,11.2v7.72a11.22,11.22,0,0,1-11.2,11.2Zm0-22.53a3.61,3.61,0,0,0-3.61,3.61v7.72a3.61,3.61,0,0,0,3.61,3.61h7.72a3.61,3.61,0,0,0,3.6-3.61V11.2a3.61,3.61,0,0,0-3.6-3.61ZM11.2,30.12A11.22,11.22,0,0,1,0,18.92V11.2A11.21,11.21,0,0,1,11.2,0h7.72a11.21,11.21,0,0,1,11.2,11.2v7.72a11.21,11.21,0,0,1-11.2,11.2Zm0-22.53A3.61,3.61,0,0,0,7.59,11.2v7.72a3.61,3.61,0,0,0,3.61,3.61h7.72a3.61,3.61,0,0,0,3.61-3.61V11.2a3.61,3.61,0,0,0-3.61-3.61Z"/></svg>