<svg xmlns="http://www.w3.org/2000/svg" width="17" height="18" viewBox="0 0 17 18" fill="currentColor">
					<path d="M15.3 18H0.9C0.661305 18 0.432387 17.9052 0.263604 17.7364C0.0948211 17.5676 0 17.3387 0 17.1V0.9C0 0.661305 0.0948211 0.432387 0.263604 0.263604C0.432387 0.0948211 0.661305 0 0.9 0H15.3C15.5387 0 15.7676 0.0948211 15.9364 0.263604C16.1052 0.432387 16.2 0.661305 16.2 0.9V17.1C16.2 17.3387 16.1052 17.5676 15.9364 17.7364C15.7676 17.9052 15.5387 18 15.3 18ZM14.4 16.2V1.8H1.8V16.2H14.4ZM5.4 3.6V5.4C5.4 6.11608 5.68446 6.80284 6.19081 7.30919C6.69716 7.81554 7.38392 8.1 8.1 8.1C8.81608 8.1 9.50284 7.81554 10.0092 7.30919C10.5155 6.80284 10.8 6.11608 10.8 5.4V3.6H12.6V5.4C12.6 6.59347 12.1259 7.73807 11.282 8.58198C10.4381 9.42589 9.29347 9.9 8.1 9.9C6.90653 9.9 5.76193 9.42589 4.91802 8.58198C4.07411 7.73807 3.6 6.59347 3.6 5.4V3.6H5.4Z"/>
				</svg>