<svg xmlns="http://www.w3.org/2000/svg" width="18" height="20" viewBox="0 0 18 20" fill="currentColor"><path d="M16.3028 19H1.90281C1.66412 19 1.4352 18.9052 1.26642 18.7364C1.09763 18.5676 1.00281 18.3387 1.00281 18.1V1.9C1.00281 1.66131 1.09763 1.43239 1.26642 1.26361C1.4352 1.09483 1.66412 1 1.90281 1H16.3028C16.5415 1 16.7704 1.09483 16.9392 1.26361C17.108 1.43239 17.2028 1.66131 17.2028 1.9V18.1C17.2028 18.3387 17.108 18.5676 16.9392 18.7364C16.7704 18.9052 16.5415 19 16.3028 19ZM15.4028 17.2V2.8H2.80281V17.2H15.4028ZM6.40281 4.6V6.4C6.40281 7.11609 6.68728 7.80285 7.19362 8.30919C7.69997 8.81554 8.38673 9.1 9.10281 9.1C9.8189 9.1 10.5057 8.81554 11.012 8.30919C11.5183 7.80285 11.8028 7.11609 11.8028 6.4V4.6H13.6028V6.4C13.6028 7.59348 13.1287 8.73807 12.2848 9.58199C11.4409 10.4259 10.2963 10.9 9.10281 10.9C7.90934 10.9 6.76475 10.4259 5.92083 9.58199C5.07692 8.73807 4.60281 7.59348 4.60281 6.4V4.6H6.40281Z"/><path fill-rule="evenodd" clip-rule="evenodd" d="M6.52281 4.48V6.4C6.52281 7.08426 6.79463 7.7405 7.27848 8.22434C7.76232 8.70818 8.41855 8.98 9.10281 8.98C9.78707 8.98 10.4433 8.70818 10.9271 8.22434C11.411 7.7405 11.6828 7.08426 11.6828 6.4V4.48H13.7228V6.4C13.7228 7.6253 13.2361 8.80042 12.3696 9.66684C11.5032 10.5333 10.3281 11.02 9.10281 11.02C7.87751 11.02 6.7024 10.5333 5.83598 9.66684C4.96956 8.80042 4.48281 7.6253 4.48281 6.4V4.48H6.52281ZM16.3028 19.12H1.90281C1.63229 19.12 1.37285 19.0125 1.18156 18.8213C0.990276 18.63 0.882812 18.3705 0.882812 18.1V1.9C0.882812 1.62948 0.990276 1.37004 1.18156 1.17876C1.37285 0.987469 1.63229 0.880005 1.90281 0.880005H16.3028C16.5733 0.880005 16.8328 0.987469 17.0241 1.17876C17.2154 1.37004 17.3228 1.62948 17.3228 1.9V18.1C17.3228 18.3705 17.2154 18.63 17.0241 18.8213C16.8328 19.0125 16.5733 19.12 16.3028 19.12ZM15.4028 2.8V17.2H2.80281V2.8H15.4028ZM2.92281 2.92V17.08H15.2828V2.92H2.92281ZM1.90281 19H16.3028C16.5415 19 16.7704 18.9052 16.9392 18.7364C17.108 18.5676 17.2028 18.3387 17.2028 18.1V1.9C17.2028 1.66131 17.108 1.43239 16.9392 1.26361C16.7704 1.09483 16.5415 1 16.3028 1H1.90281C1.66412 1 1.4352 1.09483 1.26642 1.26361C1.09763 1.43239 1.00281 1.66131 1.00281 1.9V18.1C1.00281 18.3387 1.09763 18.5676 1.26642 18.7364C1.4352 18.9052 1.66412 19 1.90281 19ZM6.40281 4.6H4.60281V6.4C4.60281 7.59348 5.07692 8.73807 5.92083 9.58199C6.76475 10.4259 7.90934 10.9 9.10281 10.9C10.2963 10.9 11.4409 10.4259 12.2848 9.58199C13.1287 8.73807 13.6028 7.59348 13.6028 6.4V4.6H11.8028V6.4C11.8028 7.11609 11.5183 7.80285 11.012 8.30919C10.5057 8.81554 9.8189 9.1 9.10281 9.1C8.38673 9.1 7.69997 8.81554 7.19362 8.30919C6.68728 7.80285 6.40281 7.11609 6.40281 6.4V4.6Z"/></svg>