<svg xmlns="http://www.w3.org/2000/svg" class="hdt-hidden">
  <symbol id="icon-cart-remove" viewBox="0 0 16 16" fill="currentColor">
    <path d="M15.2 2.4H0.8C0.587827 2.4 0.384344 2.48429 0.234315 2.63431C0.0842854 2.78434 0 2.98783 0 3.2C0 3.41217 0.0842854 3.61566 0.234315 3.76569C0.384344 3.91571 0.587827 4 0.8 4H2.4V13.6C2.4 14.2365 2.65286 14.847 3.10294 15.2971C3.55303 15.7471 4.16348 16 4.8 16H11.2C11.5152 16.0001 11.8273 15.9381 12.1186 15.8175C12.4098 15.697 12.6744 15.5202 12.8973 15.2973C13.1202 15.0744 13.297 14.8098 13.4175 14.5186C13.5381 14.2273 13.6001 13.9152 13.6 13.6V4H15.2C15.4122 4 15.6157 3.91571 15.7657 3.76569C15.9157 3.61566 16 3.41217 16 3.2C16 2.98783 15.9157 2.78434 15.7657 2.63431C15.6157 2.48429 15.4122 2.4 15.2 2.4ZM12 13.6C11.9998 13.8121 11.9154 14.0155 11.7655 14.1655C11.6155 14.3154 11.4121 14.3998 11.2 14.4H4.8C4.58789 14.3998 4.38453 14.3154 4.23455 14.1655C4.08457 14.0155 4.00021 13.8121 4 13.6V4H12V13.6ZM6.4 1.6H9.6C9.81217 1.6 10.0157 1.51571 10.1657 1.36569C10.3157 1.21566 10.4 1.01217 10.4 0.8C10.4 0.587827 10.3157 0.384344 10.1657 0.234315C10.0157 0.0842854 9.81217 0 9.6 0H6.4C6.18783 0 5.98434 0.0842854 5.83431 0.234315C5.68429 0.384344 5.6 0.587827 5.6 0.8C5.6 1.01217 5.68429 1.21566 5.83431 1.36569C5.98434 1.51571 6.18783 1.6 6.4 1.6Z"/><path d="M7.2 11.2V7.2C7.2 6.98783 7.11571 6.78434 6.96569 6.63432C6.81566 6.48429 6.61217 6.4 6.4 6.4C6.18783 6.4 5.98434 6.48429 5.83431 6.63432C5.68429 6.78434 5.6 6.98783 5.6 7.2V11.2C5.6 11.4122 5.68429 11.6157 5.83431 11.7657C5.98434 11.9157 6.18783 12 6.4 12C6.61217 12 6.81566 11.9157 6.96569 11.7657C7.11571 11.6157 7.2 11.4122 7.2 11.2ZM10.4 11.2V7.2C10.4 6.98783 10.3157 6.78434 10.1657 6.63432C10.0157 6.48429 9.81217 6.4 9.6 6.4C9.38783 6.4 9.18434 6.48429 9.03432 6.63432C8.88429 6.78434 8.8 6.98783 8.8 7.2V11.2C8.8 11.4122 8.88429 11.6157 9.03432 11.7657C9.18434 11.9157 9.38783 12 9.6 12C9.81217 12 10.0157 11.9157 10.1657 11.7657C10.3157 11.6157 10.4 11.4122 10.4 11.2Z"/>
  </symbol>
  <symbol id="icon-cart-edit" viewBox="0 0 14 16" fill="currentColor">
    <path d="M1.61967 13.4726C1.77963 13.4726 1.81162 13.4566 1.95559 13.4246L4.83487 12.8488C5.13879 12.7688 5.44271 12.6248 5.68265 12.3849L12.6569 5.41065C13.7286 4.33892 13.7286 2.49937 12.6569 1.42764L12.0651 0.803799C10.9933 -0.267933 9.13779 -0.267933 8.06606 0.803799L1.0918 7.79405C0.867858 8.018 0.707898 8.33792 0.627918 8.64184L0.0200697 11.5531C-0.0599103 12.097 0.10005 12.6248 0.483954 13.0087C0.787878 13.3127 1.23577 13.4726 1.61967 13.4726ZM2.16353 8.94576L9.13779 1.95551C9.60167 1.49163 10.4495 1.49163 10.8974 1.95551L11.5052 2.56336C12.0491 3.10722 12.0491 3.87503 11.5052 4.4029L4.54694 11.3932L1.58768 11.889L2.16353 8.94576ZM12.5929 14.4644H0.787878C0.323994 14.4644 0.0200697 14.7683 0.0200697 15.2322C0.0200697 15.6961 0.403974 16 0.787878 16H12.5289C12.9928 16 13.3767 15.6961 13.3767 15.2322C13.3607 14.7683 12.9768 14.4644 12.5929 14.4644Z"/>
  </symbol>
</svg>