<svg xmlns="http://www.w3.org/2000/svg" width="14" height="14" viewBox="0 0 14 14" fill="none"><path d="M13.7854 12.5947L10.6117 9.421C11.3758 8.4038 11.7883 7.16566 11.7869 5.89344C11.7869 2.64382 9.14306 0 5.89344 0C2.64382 0 0 2.64382 0 5.89344C0 9.14306 2.64382 11.7869 5.89344 11.7869C7.16566 11.7883 8.4038 11.3758 9.421 10.6117L12.5947 13.7854C12.7554 13.929 12.9649 14.0057 13.1803 13.9997C13.3957 13.9936 13.6006 13.9054 13.753 13.753C13.9054 13.6006 13.9936 13.3957 13.9997 13.1803C14.0057 12.9649 13.929 12.7554 13.7854 12.5947ZM1.68384 5.89344C1.68384 5.06086 1.93073 4.24698 2.39329 3.55471C2.85584 2.86245 3.51329 2.32289 4.2825 2.00428C5.0517 1.68566 5.89811 1.6023 6.71469 1.76473C7.53127 1.92715 8.28135 2.32808 8.87008 2.9168C9.4588 3.50553 9.85972 4.25561 10.0222 5.07219C10.1846 5.88877 10.1012 6.73518 9.7826 7.50438C9.46399 8.27359 8.92443 8.93104 8.23217 9.39359C7.5399 9.85615 6.72602 10.103 5.89344 10.103C4.7774 10.1017 3.70745 9.65776 2.91828 8.8686C2.12912 8.07943 1.68518 7.00948 1.68384 5.89344Z" fill="currentColor"/></svg>