<svg xmlns="http://www.w3.org/2000/svg" width="14" height="14" viewBox="0 0 14 14" fill="none"><path d="M13.4818 13.8852H12.1703V12.5738C12.1703 12.052 11.9631 11.5517 11.5941 11.1827C11.2252 10.8138 10.7248 10.6066 10.2031 10.6066H3.39344C2.8717 10.6066 2.37134 10.8138 2.00241 11.1827C1.63349 11.5517 1.42623 12.052 1.42623 12.5738V13.8852H0.114754V12.5738C0.114754 11.7042 0.460186 10.8703 1.07506 10.2554C1.68993 9.64051 2.52388 9.29508 3.39344 9.29508H10.2031C11.0727 9.29508 11.9066 9.64051 12.5215 10.2554C13.1364 10.8703 13.4818 11.7042 13.4818 12.5738V13.8852ZM6.91621 7.98361C6.39953 7.98361 5.88792 7.88184 5.41057 7.68412C4.93323 7.48639 4.4995 7.19659 4.13415 6.83124C3.76881 6.46589 3.479 6.03217 3.28128 5.55482C3.08355 5.07747 2.98178 4.56586 2.98178 4.04918C2.98178 3.5325 3.08355 3.02089 3.28128 2.54354C3.479 2.06619 3.76881 1.63247 4.13415 1.26712C4.4995 0.901776 4.93323 0.611968 5.41057 0.414244C5.88792 0.216521 6.39953 0.114754 6.91621 0.114754C7.95969 0.114754 8.96042 0.529273 9.69827 1.26712C10.4361 2.00497 10.8506 3.00571 10.8506 4.04918C10.8506 5.09266 10.4361 6.09339 9.69827 6.83124C8.96042 7.56909 7.95969 7.98361 6.91621 7.98361ZM6.91621 6.67213C7.61186 6.67213 8.27902 6.39579 8.77092 5.90389C9.26282 5.41199 9.53916 4.74483 9.53916 4.04918C9.53916 3.35353 9.26282 2.68637 8.77092 2.19447C8.27902 1.70258 7.61186 1.42623 6.91621 1.42623C6.22056 1.42623 5.5534 1.70258 5.0615 2.19447C4.56961 2.68637 4.29326 3.35353 4.29326 4.04918C4.29326 4.74483 4.56961 5.41199 5.0615 5.90389C5.5534 6.39579 6.22056 6.67213 6.91621 6.67213Z" fill="currentColor"/><path fill-rule="evenodd" clip-rule="evenodd" d="M13.5965 14H12.0556V12.5738C12.0556 12.0825 11.8604 11.6113 11.513 11.2639C11.1656 10.9165 10.6944 10.7213 10.2031 10.7213H3.39344C2.90214 10.7213 2.43096 10.9165 2.08356 11.2639C1.73615 11.6113 1.54098 12.0825 1.54098 12.5738V14H0V12.5738C0 11.6738 0.357523 10.8106 0.993916 10.1742C1.63031 9.53785 2.49345 9.18033 3.39344 9.18033H10.2031C11.1031 9.18033 11.9662 9.53785 12.6026 10.1742C13.239 10.8106 13.5965 11.6738 13.5965 12.5738V14ZM6.91621 8.09836C6.38447 8.09836 5.85793 7.99363 5.36666 7.79014C4.87539 7.58664 4.42901 7.28838 4.05301 6.91238C3.67701 6.53638 3.37875 6.09 3.17526 5.59873C2.97177 5.10747 2.86703 4.58093 2.86703 4.04918C2.86703 3.51743 2.97177 2.9909 3.17526 2.49963C3.37875 2.00836 3.67701 1.56198 4.05301 1.18598C4.42901 0.809976 4.87539 0.511716 5.36666 0.308225C5.85793 0.104735 6.38447 -1.13998e-08 6.91621 0C7.99012 1.13998e-08 9.02005 0.426609 9.77942 1.18598C10.5388 1.94535 10.9654 2.97527 10.9654 4.04918C10.9654 5.12309 10.5388 6.15301 9.77942 6.91238C9.02005 7.67175 7.99012 8.09836 6.91621 8.09836ZM6.91621 6.55738C7.58143 6.55738 8.2194 6.29312 8.68977 5.82274C9.16015 5.35237 9.42441 4.7144 9.42441 4.04918C9.42441 3.38397 9.16015 2.746 8.68977 2.27562C8.2194 1.80524 7.58143 1.54098 6.91621 1.54098C6.251 1.54098 5.61303 1.80524 5.14265 2.27562C4.67227 2.746 4.40801 3.38397 4.40801 4.04918C4.40801 4.7144 4.67227 5.35237 5.14265 5.82274C5.61303 6.29312 6.251 6.55738 6.91621 6.55738ZM13.4818 13.8852V12.5738C13.4818 11.7042 13.1364 10.8703 12.5215 10.2554C11.9066 9.64051 11.0727 9.29508 10.2031 9.29508H3.39344C2.52388 9.29508 1.68993 9.64051 1.07506 10.2554C0.460186 10.8703 0.114754 11.7042 0.114754 12.5738V13.8852H1.42623V12.5738C1.42623 12.052 1.63349 11.5517 2.00241 11.1827C2.37134 10.8138 2.8717 10.6066 3.39344 10.6066H10.2031C10.7248 10.6066 11.2252 10.8138 11.5941 11.1827C11.9631 11.5517 12.1703 12.052 12.1703 12.5738V13.8852H13.4818ZM5.41057 7.68412C5.88792 7.88184 6.39953 7.98361 6.91621 7.98361C7.95969 7.98361 8.96042 7.56909 9.69827 6.83124C10.4361 6.09339 10.8506 5.09266 10.8506 4.04918C10.8506 3.00571 10.4361 2.00497 9.69827 1.26712C8.96042 0.529273 7.95969 0.114754 6.91621 0.114754C6.39953 0.114754 5.88792 0.216521 5.41057 0.414244C4.93323 0.611968 4.4995 0.901776 4.13415 1.26712C3.76881 1.63247 3.479 2.06619 3.28128 2.54354C3.08355 3.02089 2.98178 3.5325 2.98178 4.04918C2.98178 4.56586 3.08355 5.07747 3.28128 5.55482C3.479 6.03217 3.76881 6.46589 4.13415 6.83124C4.4995 7.19659 4.93323 7.48639 5.41057 7.68412ZM8.77092 5.90389C8.27902 6.39579 7.61186 6.67213 6.91621 6.67213C6.22056 6.67213 5.5534 6.39579 5.0615 5.90389C4.56961 5.41199 4.29326 4.74483 4.29326 4.04918C4.29326 3.35353 4.56961 2.68637 5.0615 2.19447C5.5534 1.70258 6.22056 1.42623 6.91621 1.42623C7.61186 1.42623 8.27902 1.70258 8.77092 2.19447C9.26282 2.68637 9.53916 3.35353 9.53916 4.04918C9.53916 4.74483 9.26282 5.41199 8.77092 5.90389Z" fill="currentColor"/></svg>